<mxfile host="app.diagrams.net" modified="2023-09-11T18:22:12.058Z" agent="Mozilla/5.0 (Windows NT 10.0; Win64; x64) AppleWebKit/537.36 (KHTML, like Gecko) Chrome/116.0.0.0 Safari/537.36" etag="L32ESM1P8XvKRlPBBBW8" version="21.7.4" type="github">
  <diagram name="Page-1" id="Uv9DkOcw_P7UXdae7nSO">
    <mxGraphModel dx="548" dy="493" grid="1" gridSize="10" guides="1" tooltips="1" connect="1" arrows="1" fold="1" page="1" pageScale="1" pageWidth="827" pageHeight="1169" math="0" shadow="0">
      <root>
        <mxCell id="0" />
        <mxCell id="1" parent="0" />
        <mxCell id="Vwa_khQ4X4hQhHuot4RB-2" value="   +------------------------------------------+&#xa;    |             Person                        |&#xa;    +---------------------------------------+&#xa;    | - _id: ObjectId                         |               &#xa;    | - name: String (required)        |&#xa;    +----------------------------------+&#xa;    | + save(): Promise&lt;Person&gt;   | &#xa;    | + findById(id: ObjectId):         |     &#xa;    |   Promise&lt;Person|null&gt;         |        &#xa;    | + findOne(query: Object):      |     &#xa;    |   Promise&lt;Person|null&gt;         |         &#xa;    | + findOneAndUpdate(           |          &#xa;    |   query: Object,                     |        &#xa;    |   update: Object,                   |                    &#xa;    |   options: Object                   |                   &#xa;    | ): Promise&lt;Person|null&gt;       |        &#xa;    | + findByIdAndDelete(           |      &#xa;    |   id: ObjectId                         |  &#xa;    | ): Promise&lt;Person|null&gt;       |       &#xa;    +---------------------------------------+" style="text;whiteSpace=wrap;" vertex="1" parent="1">
          <mxGeometry x="90" y="70" width="260" height="350" as="geometry" />
        </mxCell>
      </root>
    </mxGraphModel>
  </diagram>
</mxfile>
